<svg id="Layer_1" data-name="Layer 1" xmlns="http://www.w3.org/2000/svg" viewBox="0 0 379.71 39.56"><title>logo-dark</title><path d="M17,44.1a1.62,1.62,0,0,0-.3-.27c0-.06,0-.06,0-.17a1.21,1.21,0,0,1-.21-.33,0,0,0,0,1-.05,0,2.2,2.2,0,0,0-.21-.44L5.65,10.75a3.23,3.23,0,0,1,1.29-3.9c1.16-.66,2.53.05,3,1.59l8.38,25.44L26.73,8.44c.52-1.54,1.93-2.25,3.09-1.59a3.34,3.34,0,0,1,1.29,3.9L20.5,42.84a1.6,1.6,0,0,1-.17.44s0,0,0,0-.17.22-.21.33a.82.82,0,0,1-.09.17c-.09.11-.17.16-.26.27l-.08.06c-.09.05-.22.22-.35.27s0,0-.08.06a.79.79,0,0,0-.35.11h-.08a1.39,1.39,0,0,1-.43,0,1.27,1.27,0,0,1-.43,0h-.09a.72.72,0,0,0-.34-.11c0-.06,0-.06,0-.06h-.05c-.08,0-.25-.22-.38-.33Z" transform="translate(-5.46 -5.09)"/><path d="M37.55,9.21c0-1.7,1-3,2.36-3a2.78,2.78,0,0,1,2.41,3V41.63a2.78,2.78,0,0,1-2.41,3c-1.33,0-2.36-1.32-2.36-3Z" transform="translate(-5.46 -5.09)"/><path d="M50.34,41.63V9.21c0-1.7,1-3,2.37-3h14c1.24,0,2.36,1.32,2.36,3S68,12.29,66.75,12.29H55.11V22.34h10c1.28,0,2.36,1.43,2.36,3s-1.08,3.08-2.36,3.08h-10V38.55H66.75c1.24,0,2.36,1.38,2.36,3.08s-1.12,3-2.36,3H52.84c-.09,0-.09,0-.09,0l0,0C51.38,44.65,50.34,43.28,50.34,41.63Z" transform="translate(-5.46 -5.09)"/><path d="M94.18,12.29H87.36V41.63c0,1.7-1,3-2.37,3s-2.36-1.32-2.36-3V12.29H75.85c-1.33,0-2.36-1.43-2.36-3.08s1-3,2.36-3H94.18c1.29,0,2.37,1.32,2.37,3S95.47,12.29,94.18,12.29Z" transform="translate(-5.46 -5.09)"/><path d="M108.35,41.63c0,1.65-1.07,3-2.32,3s-2.36-1.37-2.36-3v-32a3.35,3.35,0,0,1,1-2.53,2,2,0,0,1,3.26.66l13.87,24.56V9.7c0-1.59,1-3,2.32-3s2.36,1.37,2.36,3V41.63c0,1.65-1.07,3-2.36,3a2.19,2.19,0,0,1-1.76-1.1,1.58,1.58,0,0,1-.22-.33L108.35,18.83Z" transform="translate(-5.46 -5.09)"/><path d="M152.06,35.58H141.63l-2.11,7.15a2.48,2.48,0,0,1-2.23,1.92,2,2,0,0,1-.82-.16,3.44,3.44,0,0,1-1.41-4l9.49-32.36a2.47,2.47,0,0,1,2.27-1.93,2.44,2.44,0,0,1,2.28,1.93l9.49,32.36a3.43,3.43,0,0,1-1.42,4,1.83,1.83,0,0,1-.81.16,2.39,2.39,0,0,1-2.19-1.92Zm-1.76-6-3.48-11.81-3.48,11.81Z" transform="translate(-5.46 -5.09)"/><path d="M190.32,9.21V41.63c0,1.65-1.12,3-2.41,3s-2.36-1.37-2.36-3V18.5l-6.18,11a2.23,2.23,0,0,1-1.93,1.26h-.09a2.29,2.29,0,0,1-2-1.26l-6.14-11V41.63c0,1.65-1.08,3-2.41,3s-2.36-1.37-2.36-3V9.21c0-1.65,1.07-3,2.36-3H167a2.22,2.22,0,0,1,1.89,1.26l8.54,15.17,8.55-15.17a2.23,2.23,0,0,1,1.93-1.26h0A2.84,2.84,0,0,1,190.32,9.21Z" transform="translate(-5.46 -5.09)"/><path d="M213.59,41.63V9.21c0-1.65,1-3,2.36-3h14c1.25,0,2.36,1.37,2.36,3s-1.11,3.08-2.36,3.08H218.35V22.34h10c1.29,0,2.36,1.43,2.36,3s-1.07,3.08-2.36,3.08h-10V41.63c0,1.65-1.07,3-2.4,3S213.59,43.28,213.59,41.63Z" transform="translate(-5.46 -5.09)"/><path d="M239.86,9.21c0-1.7,1-3,2.37-3a2.78,2.78,0,0,1,2.4,3V41.63a2.78,2.78,0,0,1-2.4,3c-1.34,0-2.37-1.32-2.37-3Z" transform="translate(-5.46 -5.09)"/><path d="M251.71,35.09a1.93,1.93,0,0,1,3.14-.38c1.89,2,5.15,4.28,8.2,4.23a7.91,7.91,0,0,0,5.37-2A5.33,5.33,0,0,0,270.26,33a3.77,3.77,0,0,0-.38-1.76,4.91,4.91,0,0,0-1.29-1.65A15,15,0,0,0,262.71,27h-.09a19.79,19.79,0,0,1-5.54-2.15,9.92,9.92,0,0,1-5-8.79,11.09,11.09,0,0,1,3.44-8A10.83,10.83,0,0,1,263,5.09c4.13,0,7.18,2.58,9.37,4.39a3.39,3.39,0,0,1,.6,3.91,1.92,1.92,0,0,1-3.05.82c-2.19-1.87-4.3-3.52-6.92-3.52a7,7,0,0,0-4.8,1.87A4.74,4.74,0,0,0,256.52,16a3.33,3.33,0,0,0,.3,1.54A5,5,0,0,0,258,19a12.93,12.93,0,0,0,5.37,2.42h.09a21.12,21.12,0,0,1,5.92,2.31,11,11,0,0,1,4.3,4.56,10.87,10.87,0,0,1,1,4.67A11.66,11.66,0,0,1,263.05,44.6c-4.64-.06-8.54-3-11-5.5A3.51,3.51,0,0,1,251.71,35.09Z" transform="translate(-5.46 -5.09)"/><path d="M281.3,41.63V9.21c0-1.7,1-3,2.36-3s2.4,1.32,2.4,3V22.4h11.12V9.21c0-1.7,1-3,2.37-3s2.4,1.32,2.4,3V41.63c0,1.7-1.07,3-2.4,3s-2.37-1.32-2.37-3V28.44H286.06V41.63c0,1.7-1.07,3-2.4,3S281.3,43.33,281.3,41.63Z" transform="translate(-5.46 -5.09)"/><path d="M311.74,41.63V9.21c0-1.7,1-3,2.36-3h14c1.25,0,2.36,1.32,2.36,3s-1.11,3.08-2.36,3.08H316.51V22.34h10c1.29,0,2.36,1.43,2.36,3s-1.07,3.08-2.36,3.08h-10V38.55h11.63c1.25,0,2.36,1.38,2.36,3.08s-1.11,3-2.36,3H314.23c-.09,0-.09,0-.09,0l0,0C312.77,44.65,311.74,43.28,311.74,41.63Z" transform="translate(-5.46 -5.09)"/><path d="M357.94,40.09a2.74,2.74,0,0,1-2.45,4h0a2.65,2.65,0,0,1-1.68-.6,5.1,5.1,0,0,1-1.37-1.93,18.44,18.44,0,0,1-.9-6.59,5.73,5.73,0,0,0-.52-2.36,4.61,4.61,0,0,0-1.29-1.6,7.18,7.18,0,0,0-2.4-1.31h-5.07V41.63c0,1.65-1.07,3-2.4,3s-2.36-1.37-2.36-3V9.21c0-1.7,1-3,2.36-3h7.68c5.11,0,9.19,5.27,9.19,11.81a13.11,13.11,0,0,1-3.35,9,8,8,0,0,1,1.51,2A12.49,12.49,0,0,1,356.26,35a17.27,17.27,0,0,0,.18,3.24A2.73,2.73,0,0,1,357.94,40.09Zm-6-22.09c0-3.19-2-5.71-4.43-5.71h-5.28V23.61h5.28C350,23.61,351.93,21.08,351.93,18Z" transform="translate(-5.46 -5.09)"/><path d="M384.73,11.35l-8.8,15.44V41.63c0,1.7-1,3-2.36,3s-2.36-1.32-2.36-3V26.79l-8.72-15.44A3.42,3.42,0,0,1,363,7.18a2,2,0,0,1,3.26.66l7.35,12.85,7.34-12.85a2,2,0,0,1,3.31-.66A3.63,3.63,0,0,1,384.73,11.35Z" transform="translate(-5.46 -5.09)"/></svg>